<svg xmlns="http://www.w3.org/2000/svg" viewBox="0 0 216 207.91"><title>container</title><path d="M5,91.86l62,35.8v71.59L5,163.45V91.86M0,83.2v83.14l72,41.57V124.77L0,83.2Z" style="fill:#7fdce1"/><rect x="50.66" y="127.2" width="4" height="57" rx="2" ry="2" style="fill:#7fdce1;stroke:#7fdce1;stroke-miterlimit:10;stroke-width:0.75px"/><rect x="32.66" y="117.2" width="4" height="57" rx="2" ry="2" style="fill:#7fdce1;stroke:#7fdce1;stroke-miterlimit:10;stroke-width:0.75px"/><rect x="13.66" y="107.2" width="4" height="57" rx="2" ry="2" style="fill:#7fdce1;stroke:#7fdce1;stroke-miterlimit:10;stroke-width:0.75px"/><path d="M211,50.29v71.59L77,199.25V127.66L211,50.29m5-8.66L72,124.77v83.14l144-83.14V41.63Z" style="fill:#7fdce1"/><rect x="191.97" y="67.84" width="4" height="57" rx="2" ry="2" style="fill:#7fdce1;stroke:#7fdce1;stroke-miterlimit:10;stroke-width:0.75px"/><rect x="174.97" y="76.84" width="4" height="57" rx="2" ry="2" style="fill:#7fdce1;stroke:#7fdce1;stroke-miterlimit:10;stroke-width:0.75px"/><rect x="94.97" y="123.84" width="4" height="57" rx="2" ry="2" style="fill:#7fdce1;stroke:#7fdce1;stroke-miterlimit:10;stroke-width:0.75px"/><rect x="111.97" y="113.84" width="4" height="57" rx="2" ry="2" style="fill:#7fdce1;stroke:#7fdce1;stroke-miterlimit:10;stroke-width:0.75px"/><rect x="127.97" y="103.84" width="4" height="57" rx="2" ry="2" style="fill:#7fdce1;stroke:#7fdce1;stroke-miterlimit:10;stroke-width:0.75px"/><rect x="143.97" y="94.84" width="4" height="57" rx="2" ry="2" style="fill:#7fdce1;stroke:#7fdce1;stroke-miterlimit:10;stroke-width:0.75px"/><rect x="158.97" y="86.84" width="4" height="57" rx="2" ry="2" style="fill:#7fdce1;stroke:#7fdce1;stroke-miterlimit:10;stroke-width:0.75px"/><path d="M144,5.77l62,35.8L72,118.93,10,83.14,144,5.77M144,0,0,83.14l72,41.57L216,41.57,144,0Z" style="fill:#7fdce1"/></svg>